<svg version="1.0" xmlns="http://www.w3.org/2000/svg"
 width="905.000000pt" height="1280.000000pt" viewBox="0 0 905.000000 1280.000000"
 preserveAspectRatio="xMidYMid meet">
<g transform="translate(0.000000,1280.000000) scale(0.100000,-0.100000)"
fill="#000000" stroke="none">
<path d="M1177 12778 c-12 -19 -13 -57 -5 -213 10 -215 22 -262 108 -441 38
-79 60 -111 102 -149 93 -84 151 -123 210 -140 48 -13 59 -21 65 -43 5 -15 8
-148 8 -297 -1 -304 -2 -314 -83 -533 -34 -95 -48 -122 -61 -120 -10 3 -15 12
-13 28 1 14 5 77 9 141 5 115 5 118 -32 229 -51 154 -106 233 -253 365 -127
113 -157 127 -187 82 -13 -20 -13 -45 0 -222 9 -110 22 -232 31 -271 33 -156
153 -295 336 -390 l88 -45 -24 -62 c-36 -96 -69 -157 -119 -217 -25 -30 -74
-102 -109 -159 -35 -57 -68 -103 -73 -102 -6 1 -15 30 -22 64 -15 85 -27 111
-80 186 -60 84 -164 193 -268 281 -69 59 -88 70 -119 70 -60 0 -64 -25 -27
-161 54 -205 129 -371 217 -482 38 -48 137 -126 175 -139 8 -3 -8 -41 -44
-104 -31 -54 -88 -173 -128 -264 -39 -91 -80 -185 -91 -210 l-20 -45 -17 56
c-35 109 -69 157 -174 241 -54 43 -106 78 -116 78 -41 0 -71 -157 -71 -369 0
-161 14 -239 56 -324 40 -79 67 -110 133 -153 34 -21 61 -46 61 -55 0 -8 -7
-67 -15 -130 -9 -63 -18 -183 -22 -266 l-6 -153 -53 58 c-37 41 -71 67 -113
86 -74 33 -371 101 -406 92 -32 -8 -32 -35 0 -90 14 -23 34 -68 45 -100 28
-83 80 -148 164 -204 94 -63 139 -75 264 -70 l99 3 7 -80 c3 -44 6 -156 6
-250 0 -156 11 -339 26 -457 l6 -47 -98 52 -99 51 -135 1 c-74 0 -143 -3 -152
-8 -27 -12 -22 -40 12 -72 17 -16 38 -54 50 -91 28 -82 78 -147 153 -195 60
-39 172 -80 255 -94 57 -9 69 -24 77 -97 10 -93 32 -177 61 -225 14 -24 77
-102 140 -174 64 -73 119 -142 124 -155 9 -23 40 -217 36 -221 -1 -2 -31 13
-67 31 -35 19 -102 49 -148 67 -47 17 -100 41 -118 51 -17 11 -42 18 -55 16
-37 -5 -30 -40 69 -325 25 -72 94 -138 199 -190 86 -43 194 -119 202 -143 2
-5 -19 -42 -46 -83 -28 -40 -64 -102 -81 -138 -18 -35 -46 -89 -63 -119 -28
-47 -33 -67 -36 -142 -5 -99 10 -159 85 -343 57 -141 99 -217 172 -308 l59
-74 -14 -182 c-13 -173 -9 -271 12 -356 3 -14 4 -25 1 -25 -6 0 -74 86 -171
218 -104 140 -233 456 -257 625 -11 76 -10 89 4 105 35 38 52 140 52 307 0
184 3 175 -110 335 -38 52 -79 112 -92 133 -19 31 -29 38 -51 35 -34 -4 -38
-21 -50 -208 -17 -262 23 -417 132 -519 24 -23 26 -31 26 -110 0 -126 19 -223
66 -344 4 -11 -20 2 -61 33 -87 66 -439 243 -466 235 -36 -12 -35 -53 4 -130
67 -128 236 -336 296 -363 20 -9 48 -24 62 -34 32 -21 139 -48 194 -48 83 0
113 -22 195 -141 115 -168 183 -231 557 -511 126 -94 219 -168 208 -164 -79
30 -302 76 -380 79 -35 2 -40 -1 -43 -21 -5 -34 43 -151 84 -202 74 -94 213
-163 332 -164 l72 -1 5 -30 c13 -77 25 -233 25 -312 0 -134 -24 -264 -80 -439
-57 -175 -75 -288 -61 -374 11 -66 63 -209 97 -267 47 -81 161 -148 379 -223
145 -49 388 -181 478 -259 34 -29 139 -129 233 -221 l170 -168 -23 -43 c-13
-24 -23 -58 -23 -76 0 -85 79 -212 182 -291 94 -72 271 -165 375 -196 26 -8
63 27 63 60 0 12 -29 84 -65 160 -36 75 -64 138 -62 140 1 2 83 -37 182 -87
131 -64 211 -112 292 -173 162 -122 190 -131 388 -130 171 1 231 11 350 61 78
33 98 50 90 82 l-6 24 143 -6 c79 -3 190 -13 248 -22 111 -17 177 -14 270 11
76 21 124 51 216 135 43 39 104 90 134 112 30 22 72 56 92 75 21 20 40 33 43
30 3 -2 -4 -31 -15 -64 -12 -32 -23 -85 -27 -116 -6 -62 22 -284 40 -306 21
-26 50 -8 79 48 18 35 56 80 107 128 60 54 88 89 112 137 31 63 31 68 27 168
l-5 104 39 21 c21 13 66 49 100 81 39 36 96 75 148 101 91 46 180 103 235 152
19 16 35 27 35 24 0 -3 -20 -50 -44 -103 -69 -155 -71 -165 -71 -308 l1 -130
42 -93 c23 -51 45 -110 48 -132 7 -45 24 -63 48 -54 18 7 79 131 131 264 50
130 68 224 63 340 -4 96 -5 103 -51 190 -26 50 -47 97 -47 104 0 8 28 43 63
78 56 57 209 243 264 321 22 32 34 72 98 339 44 185 45 254 5 492 -17 98 -30
185 -30 192 0 8 19 -7 42 -32 23 -25 63 -56 88 -69 86 -43 350 -119 392 -113
32 4 36 43 8 73 -12 13 -31 57 -42 97 -27 104 -53 151 -107 200 -70 63 -215
108 -349 108 -54 0 -54 0 -49 28 3 15 15 113 27 217 12 106 37 252 55 330 19
77 37 174 41 215 5 61 35 180 101 402 7 24 82 58 139 63 195 18 268 28 334 46
197 53 310 169 400 411 33 86 34 113 6 124 -16 6 -19 5 -156 -69 -69 -37 -209
-97 -227 -97 -2 0 14 24 36 53 52 68 76 123 102 233 13 55 30 99 45 117 28 33
29 40 10 56 -15 12 -15 18 0 189 l6 62 56 0 c50 0 68 6 144 49 151 85 209 132
278 227 35 48 79 124 97 168 61 145 84 192 114 226 17 19 29 43 27 54 -5 38
-49 31 -165 -27 -59 -30 -130 -59 -156 -66 -65 -16 -236 -93 -291 -130 -25
-17 -73 -65 -107 -106 -34 -41 -66 -75 -72 -75 -15 0 1 94 30 180 14 41 64
151 111 243 72 144 95 179 157 245 40 42 98 97 130 122 79 62 230 242 265 315
31 67 82 235 99 335 7 36 23 107 38 158 20 74 23 95 13 107 -29 35 -55 18
-205 -137 -81 -83 -165 -176 -188 -205 l-42 -54 -7 38 c-4 21 -10 103 -13 183
-7 156 -4 177 71 515 22 99 27 149 29 287 l2 166 32 54 c84 142 109 222 118
384 7 134 -3 185 -64 314 -25 52 -50 115 -57 139 -22 85 -77 82 -86 -5 l-5
-49 -9 35 c-134 584 -133 580 -264 905 -155 383 -152 378 -297 543 -72 81
-229 248 -350 371 l-220 223 83 -7 c88 -7 112 1 112 35 0 9 -10 28 -23 41 -12
13 -77 85 -143 159 -67 74 -140 152 -162 172 -48 43 -134 89 -211 112 -63 19
-187 21 -242 5 -35 -11 -40 -10 -76 18 -57 45 -260 176 -320 207 -29 14 -53
27 -53 29 0 1 35 1 78 -1 106 -5 218 36 334 120 46 33 95 66 111 74 39 21 35
50 -10 73 -21 10 -121 49 -223 86 -175 64 -188 67 -250 62 -36 -3 -94 -15
-130 -26 -79 -25 -222 -108 -268 -156 l-32 -35 -123 45 c-67 25 -148 61 -180
81 -41 26 -66 35 -84 31 -15 -3 -36 -1 -47 3 -12 4 -76 18 -143 30 -117 22
-143 33 -107 47 37 14 85 98 124 219 22 68 40 129 40 137 0 8 -9 22 -19 31
-17 15 -28 16 -98 7 -106 -15 -228 -57 -269 -93 -38 -34 -115 -139 -155 -212
l-27 -50 -344 -1 c-359 -1 -428 -7 -650 -56 -109 -24 -115 -24 -95 -1 10 10
37 56 62 102 43 80 45 87 45 165 0 68 -4 87 -21 109 -11 14 -24 26 -28 26 -5
0 -25 -13 -46 -30 -21 -16 -74 -41 -118 -55 -94 -30 -178 -88 -280 -193 -78
-82 -103 -131 -113 -225 l-7 -68 -171 -87 c-184 -93 -181 -92 -485 -211 -125
-49 -244 -104 -306 -141 -56 -33 -104 -60 -108 -60 -3 0 0 21 8 48 18 65 27
192 18 282 -7 65 -11 76 -32 87 -35 17 -60 1 -161 -102 -47 -48 -105 -101
-130 -118 -79 -54 -130 -101 -173 -156 l-42 -54 -6 164 c-4 102 -15 204 -28
269 -18 93 -20 115 -10 195 15 122 6 190 -41 307 -70 174 -130 245 -322 375
-56 39 -114 83 -127 97 -30 32 -66 34 -84 4z m179 -209 c138 -96 221 -209 259
-354 19 -72 32 -299 18 -308 -17 -10 -70 25 -154 102 -64 58 -88 89 -119 151
-66 131 -82 190 -88 333 -2 70 -2 127 2 127 4 0 41 -23 82 -51z m2553 -289
c-11 -72 -65 -166 -134 -236 -58 -58 -65 -62 -192 -104 -72 -25 -135 -42 -138
-38 -12 11 24 122 53 163 15 22 71 75 124 118 80 65 112 84 190 112 51 19 96
34 99 35 3 0 2 -22 -2 -50z m1211 -275 c128 -17 331 -54 409 -75 28 -7 40 -15
34 -21 -7 -7 -56 -1 -144 15 -269 51 -486 86 -589 95 l-105 10 135 -4 c74 -2
191 -11 260 -20z m1533 -70 c51 -19 119 -46 151 -60 l57 -25 -42 -36 c-92 -76
-221 -120 -324 -111 -57 6 -351 90 -367 106 -11 10 161 109 239 137 100 35
172 32 286 -11z m-1879 10 c176 -16 308 -34 417 -59 35 -8 120 -24 189 -36 69
-11 134 -22 146 -25 18 -4 22 -17 34 -107 20 -163 75 -251 266 -429 54 -50
125 -109 157 -130 72 -46 201 -101 230 -97 28 4 34 45 12 88 -9 17 -23 70 -31
117 -24 135 -79 261 -171 388 -16 22 -32 45 -36 52 -5 7 38 0 105 -18 179 -47
433 -181 660 -347 116 -84 119 -87 170 -181 29 -53 74 -117 99 -142 51 -52
141 -99 242 -126 118 -33 259 -162 717 -657 117 -126 206 -274 282 -471 123
-318 173 -466 213 -631 45 -186 85 -398 85 -452 0 -17 -26 -83 -57 -148 l-58
-118 0 -106 c0 -96 3 -110 31 -171 19 -39 46 -77 69 -96 l37 -31 -4 -134 c-4
-123 -53 -438 -68 -438 -3 0 -11 37 -17 83 -6 45 -20 102 -31 127 -21 48 -142
214 -214 295 -39 42 -46 47 -65 37 -42 -23 -42 -89 2 -348 36 -212 56 -256
197 -437 l75 -95 6 -168 c4 -93 12 -209 18 -259 l11 -90 -54 -160 c-79 -228
-183 -504 -234 -618 -25 -54 -55 -130 -68 -168 -13 -38 -26 -72 -29 -75 -3 -3
-11 42 -17 100 -8 63 -18 111 -26 117 -8 7 -14 31 -14 59 0 55 -31 214 -61
315 -20 66 -27 75 -119 165 -111 108 -140 158 -175 294 -19 76 -24 122 -26
271 -1 110 3 212 11 263 19 126 9 271 -24 354 -27 64 -27 69 -16 145 17 112
79 348 150 568 93 288 140 454 146 515 5 58 -7 93 -26 74 -5 -5 -35 -99 -65
-207 -30 -109 -62 -212 -71 -228 -39 -76 -182 -556 -206 -691 -2 -14 -15 -8
-67 29 l-63 46 4 276 c5 268 6 281 41 451 20 96 59 247 87 335 90 276 99 312
112 432 l13 118 24 -64 c53 -145 162 -209 450 -266 106 -21 115 -15 115 77 0
52 -9 86 -50 193 -86 220 -115 263 -218 319 -103 57 -217 83 -285 65 -9 -3
-20 25 -36 98 -52 226 -187 593 -226 614 -10 5 -44 44 -75 87 -74 99 -188 234
-250 294 -48 46 -73 65 -351 258 -75 52 -187 134 -249 183 -62 48 -120 87
-129 87 -34 0 -13 -41 45 -89 87 -73 301 -237 410 -316 118 -85 267 -210 280
-236 6 -11 45 -60 86 -110 42 -50 74 -92 72 -93 -110 -76 -128 -97 -194 -227
-45 -90 -52 -159 -35 -343 19 -199 55 -301 105 -294 11 2 55 42 97 90 86 98
157 224 200 358 15 47 30 78 33 70 52 -151 100 -326 112 -405 14 -95 13 -113
-10 -340 -25 -238 -25 -242 -86 -430 -84 -260 -96 -302 -119 -418 -43 -213
-52 -307 -53 -535 l0 -223 -29 -54 c-48 -91 -72 -180 -66 -246 10 -113 63
-198 241 -384 l86 -90 0 -58 c0 -92 -41 -157 -121 -191 -125 -54 -156 -69
-177 -89 l-23 -22 -111 114 -110 114 -25 111 c-14 63 -38 136 -55 168 -41 78
-135 164 -240 221 -94 51 -133 59 -143 27 -7 -23 21 -259 36 -297 5 -14 8 -27
7 -28 -2 -2 -43 9 -93 24 l-90 26 -51 79 c-127 193 -217 244 -501 286 -142 21
-164 0 -90 -85 24 -28 62 -78 85 -111 38 -57 81 -101 120 -123 26 -15 -1 -38
-67 -57 -219 -63 -368 -131 -419 -189 -18 -20 -48 -67 -67 -106 -31 -60 -37
-86 -47 -182 -6 -66 -16 -119 -24 -128 -11 -12 -13 -44 -8 -150 8 -193 25
-243 136 -408 16 -22 47 -50 70 -62 24 -12 69 -40 101 -63 l59 -41 -39 -8
c-21 -4 -63 -15 -94 -22 -30 -8 -71 -15 -91 -15 -19 0 -49 -5 -67 -11 -26 -9
-31 -15 -25 -33 9 -32 51 -63 130 -96 138 -57 253 -59 373 -5 32 15 69 25 82
23 30 -4 110 -109 171 -222 58 -109 138 -191 201 -208 26 -6 47 -15 47 -19 0
-4 -11 -14 -25 -23 -13 -9 -63 -64 -110 -123 -65 -81 -85 -114 -83 -133 3 -24
5 -25 103 -30 66 -4 129 -15 186 -32 68 -21 94 -25 125 -18 93 20 169 22 209
6 49 -21 68 -37 118 -106 22 -30 62 -80 88 -111 48 -55 49 -56 115 -62 74 -7
107 -24 127 -65 17 -32 41 -131 35 -138 -3 -2 -19 22 -37 55 -53 101 -74 91
-126 -58 -39 -114 -68 -259 -63 -318 l3 -37 -70 -13 c-38 -7 -129 -12 -201
-11 l-131 1 -31 76 c-51 124 -102 199 -200 298 -88 89 -126 111 -137 81 -3 -7
-1 -83 3 -168 10 -172 20 -204 89 -281 20 -22 34 -41 32 -43 -2 -2 -43 -25
-92 -51 -104 -56 -137 -93 -178 -199 -44 -115 -47 -180 -14 -384 15 -94 25
-182 21 -195 -3 -13 -18 -29 -32 -36 -25 -11 -30 -9 -59 19 -48 46 -79 41
-117 -20 -17 -28 -33 -49 -34 -47 -2 2 -8 28 -14 57 -11 60 -35 104 -51 94
-10 -6 -9 -28 7 -107 5 -26 4 -27 -34 -27 -24 0 -49 -8 -65 -20 l-26 -20 -11
57 c-24 125 -33 156 -55 181 -13 15 -27 24 -31 20 -4 -5 5 -53 19 -107 15 -55
27 -104 27 -110 0 -5 -19 1 -42 14 -68 39 -134 30 -213 -31 -19 -14 -35 -22
-35 -18 0 42 -54 303 -65 321 -41 62 -42 6 -4 -167 26 -121 26 -124 -11 -105
-35 18 -67 19 -97 2 -26 -15 -140 -157 -155 -195 l-11 -27 -8 30 c-6 20 0 76
17 178 29 168 31 330 5 361 -14 16 -15 16 -24 0 -5 -9 -6 -46 -3 -83 4 -45 0
-108 -15 -201 -35 -231 -35 -249 2 -301 8 -10 9 -35 4 -74 -8 -70 -17 -60 -35
40 -21 116 -55 163 -132 186 -46 13 -124 -8 -165 -44 l-36 -31 7 29 c24 116
38 521 16 484 -18 -32 -31 -107 -42 -254 -13 -176 -13 -269 -1 -345 8 -54 8
-54 23 -30 9 14 26 48 39 76 26 59 51 74 116 74 60 0 100 -35 120 -103 26 -90
75 -335 75 -374 0 -89 -55 -180 -128 -210 -44 -18 -115 -4 -197 40 l-59 32 2
105 c2 58 5 119 8 135 9 54 -13 281 -31 315 -37 72 -104 110 -192 110 -68 0
-110 -18 -156 -65 l-35 -36 -17 35 c-35 73 -127 126 -182 105 -14 -5 -38 -18
-53 -29 -16 -11 -31 -20 -34 -20 -3 0 -6 34 -6 75 0 58 6 89 25 135 35 83 31
116 -8 72 -32 -35 -57 -106 -57 -165 l0 -59 -32 28 c-76 64 -156 79 -216 42
-34 -21 -35 -21 -84 -3 -29 10 -61 15 -79 11 -28 -5 -29 -4 -23 22 11 44 29
84 65 142 44 70 59 104 59 137 0 22 -2 24 -16 12 -17 -14 -144 -265 -144 -285
0 -6 -10 -14 -22 -18 -45 -12 -81 -6 -110 19 -31 26 -75 32 -108 15 -16 -9
-16 -3 7 68 24 75 53 201 53 225 0 7 -12 -1 -25 -16 -15 -17 -41 -80 -67 -162
l-43 -135 -34 0 c-73 0 -88 51 -47 154 13 34 27 88 31 121 4 33 16 93 26 134
22 88 24 171 5 262 -31 144 -96 223 -243 296 -92 46 -96 47 -206 51 -124 5
-104 10 -380 -92 -54 -20 -113 -36 -132 -36 -29 0 -35 4 -45 35 -6 19 -34 69
-61 110 -27 42 -49 79 -49 83 0 4 56 4 124 -1 119 -7 131 -6 303 29 149 31
205 38 340 42 155 4 163 3 215 -20 98 -45 177 -150 155 -208 -8 -21 -8 -46 2
-97 22 -118 34 -144 103 -242 65 -91 72 -98 176 -158 106 -62 144 -74 159 -51
4 7 6 83 4 168 -3 174 -13 215 -75 299 -44 60 -135 123 -202 140 -78 20 -94
29 -112 63 -26 51 -112 131 -167 157 -82 38 -156 46 -312 34 -76 -7 -139 -10
-141 -8 -3 2 16 30 41 62 25 32 52 72 61 90 22 43 20 130 -4 195 -10 29 -29
86 -40 126 -12 40 -27 75 -34 78 -8 3 -40 -12 -73 -33 -33 -21 -81 -50 -107
-65 -74 -44 -126 -140 -126 -234 0 -52 31 -154 65 -213 14 -24 24 -45 22 -47
-2 -2 -38 -11 -80 -20 -145 -30 -426 10 -564 80 -118 59 -326 218 -293 223 8
2 56 7 105 11 134 13 188 43 288 161 54 64 77 99 75 114 -3 20 -8 22 -68 19
-42 -3 -87 2 -125 13 -82 24 -179 17 -238 -19 -25 -14 -68 -51 -96 -83 -31
-34 -54 -53 -60 -47 -19 20 -61 146 -70 208 -5 36 -6 103 -1 152 7 86 5 124
-10 124 -35 0 -77 -171 -66 -271 12 -118 112 -337 198 -433 49 -55 183 -159
271 -210 l47 -28 0 -94 c0 -52 -3 -94 -7 -94 -5 0 -42 13 -83 30 -94 38 -188
108 -272 202 -140 158 -197 254 -277 469 -60 161 -70 224 -47 300 18 63 199
373 210 362 12 -12 36 28 36 60 0 16 20 79 44 140 86 220 118 350 136 561 13
148 49 267 150 492 33 74 65 156 70 182 6 26 24 88 40 137 15 50 31 107 35
129 l8 38 45 -6 c25 -3 51 -6 58 -6 21 0 17 -22 -12 -79 -19 -35 -27 -67 -28
-104 0 -63 31 -115 119 -195 l56 -51 -31 -54 c-42 -75 -70 -192 -77 -327 -3
-63 -12 -130 -19 -149 -11 -25 -12 -42 -4 -65 15 -48 51 -248 45 -254 -3 -3
-18 6 -33 21 -62 59 -159 73 -257 36 -59 -22 -85 -42 -85 -64 0 -20 117 -143
154 -162 51 -26 127 -43 197 -43 l66 0 13 -42 c34 -115 96 -195 213 -276 165
-113 169 -114 587 -118 l345 -2 83 38 c83 39 131 71 209 141 49 45 109 64 244
78 129 14 175 32 291 108 35 24 105 116 163 216 25 45 26 50 12 65 -15 14 -24
14 -110 -6 -51 -12 -120 -24 -152 -28 l-60 -6 75 76 c66 68 79 76 112 76 99 0
225 47 285 107 53 53 123 160 123 189 0 35 -19 33 -220 -31 -24 -8 -46 -13
-48 -11 -4 4 22 99 44 161 17 51 34 178 34 258 -1 81 -29 150 -108 260 -84
116 -96 118 -147 31 -14 -24 -29 -44 -32 -44 -8 0 -68 63 -145 151 -61 70
-132 115 -223 142 -27 8 -74 31 -103 51 -103 69 -195 73 -309 11 -38 -20 -100
-45 -140 -55 -39 -10 -90 -29 -114 -40 l-42 -22 22 33 c12 19 43 76 68 127 43
86 45 94 30 109 -14 14 -23 15 -70 4 -157 -35 -408 -213 -480 -340 -21 -38
-44 -62 -76 -80 -24 -14 -79 -59 -121 -98 -42 -40 -81 -73 -87 -73 -12 0 -23
55 -23 113 0 53 -20 93 -79 159 -28 31 -51 61 -51 66 0 6 44 37 98 70 110 69
133 91 206 194 57 81 44 74 237 123 122 31 142 40 119 55 -22 14 -67 12 -98
-4 -15 -8 -63 -21 -107 -30 -71 -14 -85 -15 -110 -2 -38 17 -267 30 -313 17
-18 -5 -59 -27 -91 -49 l-58 -39 -5 211 c-5 202 -7 217 -42 354 -20 79 -34
147 -32 151 3 4 33 18 66 30 34 13 96 49 143 85 70 53 87 73 117 131 l35 68 0
166 c0 166 8 217 41 266 20 28 17 63 -5 75 -28 14 -46 4 -76 -43 -15 -23 -91
-105 -169 -182 -78 -77 -164 -168 -191 -203 -26 -34 -52 -59 -56 -55 -7 8 -18
46 -74 250 -73 266 -106 580 -72 693 11 40 20 49 74 80 80 45 200 126 237 159
41 37 70 86 101 171 24 65 28 91 29 190 1 63 -2 140 -7 170 l-7 55 64 43 c35
24 113 94 173 155 l110 112 27 110 c17 67 36 120 49 136 12 14 88 83 169 153
128 110 153 137 197 210 51 83 60 106 42 106 -12 0 -60 -62 -93 -120 -24 -42
-127 -137 -272 -253 -82 -66 -109 -109 -131 -209 -9 -45 -23 -94 -30 -108 -23
-44 -274 -280 -298 -280 -3 0 -7 21 -9 48 -3 42 -6 47 -29 50 -23 3 -33 -6
-72 -65 -25 -37 -85 -111 -133 -163 -160 -174 -215 -244 -252 -319 -36 -72
-37 -79 -37 -182 0 -96 3 -111 23 -138 28 -38 27 -48 -3 -146 -56 -181 -69
-342 -40 -511 23 -129 49 -217 126 -423 75 -197 133 -443 144 -607 3 -43 8
-91 10 -106 4 -27 4 -27 -34 11 -44 44 -140 81 -211 81 -34 0 -58 8 -93 30
-26 16 -47 34 -47 40 0 17 -48 42 -70 35 -26 -8 -26 -37 1 -93 15 -29 25 -78
31 -141 16 -176 66 -238 214 -266 43 -9 103 -22 133 -31 l53 -15 -7 -77 c-8
-92 -43 -376 -50 -413 -6 -24 -14 -18 -137 107 -72 74 -137 134 -144 134 -24
0 -41 -43 -63 -150 -28 -140 -27 -203 4 -287 35 -93 67 -137 120 -168 25 -15
45 -30 45 -35 0 -4 -10 -22 -23 -41 -13 -19 -51 -75 -85 -126 -34 -50 -77
-124 -96 -163 l-33 -73 -16 70 c-17 76 -71 204 -148 348 -52 99 -111 274 -159
472 -17 70 -42 173 -56 228 -13 55 -31 147 -39 205 l-14 105 98 100 c104 107
192 228 224 310 23 57 27 176 13 355 -9 109 -20 135 -54 123 -26 -9 -167 -149
-233 -231 l-59 -73 0 66 c0 99 18 247 47 375 29 130 45 390 24 390 -7 0 -11
30 -11 93 0 91 1 94 73 272 45 113 77 180 86 180 8 0 46 62 86 142 104 202
158 290 258 416 135 169 171 223 226 334 42 85 64 115 138 190 48 49 133 125
188 168 55 44 126 103 157 132 31 29 61 53 67 53 17 0 90 70 147 141 43 54 73
79 161 131 155 94 208 118 440 209 421 164 580 222 678 249 55 15 160 46 233
69 125 38 267 71 374 86 l47 6 51 -101 c98 -195 164 -237 420 -264 167 -18
293 -11 298 17 9 45 -12 69 -176 203 -92 75 -171 141 -176 145 -13 12 11 11
208 -6z m-3558 -472 c121 -116 176 -241 198 -451 7 -70 12 -129 10 -131 -8
-10 -80 48 -134 106 -85 93 -127 183 -139 298 -15 139 -20 245 -12 245 4 0 39
-30 77 -67z m450 -651 c-18 -16 -18 -16 -6 6 6 13 14 21 18 18 3 -4 -2 -14
-12 -24z m6205 -1218 c104 -31 192 -102 226 -183 25 -57 113 -304 110 -307
-11 -11 -223 44 -277 71 -90 45 -126 85 -151 165 -19 63 -42 247 -32 263 7 12
66 8 124 -9z m-6396 -489 c10 -55 35 -170 56 -255 20 -85 36 -156 34 -158 -5
-5 -74 209 -89 278 -8 36 -17 94 -21 130 -3 36 -8 83 -10 105 -9 73 12 6 30
-100z m-762 -308 c-3 -18 -10 -39 -15 -47 -8 -12 -8 -11 -4 3 3 10 6 34 6 53
0 20 4 33 10 29 5 -3 7 -20 3 -38z m-463 -347 c104 -21 186 -52 226 -87 43
-38 124 -148 124 -168 0 -21 -3 -21 -112 -17 -82 3 -126 10 -159 24 -79 33
-174 147 -204 246 -8 27 -8 27 125 2z m1504 -427 c35 -166 29 -502 -10 -557
-13 -19 -14 -12 -7 64 10 110 10 438 0 514 -10 79 -1 68 17 -21z m6589 -330
c49 -94 77 -199 84 -322 7 -124 0 -128 -64 -33 -51 76 -79 148 -92 241 -5 40
-16 80 -24 89 -10 11 -18 49 -22 102 l-6 85 44 -47 c24 -25 60 -77 80 -115z
m-5503 -298 c0 -3 -11 -28 -25 -55 -35 -68 -80 -117 -134 -144 -70 -35 -241
-99 -248 -93 -9 10 96 115 170 169 101 75 237 145 237 123z m3892 -137 c102
-54 186 -169 207 -283 5 -27 8 -51 6 -53 -2 -2 -25 8 -52 21 -26 13 -59 28
-73 32 -76 23 -134 109 -145 219 -4 38 -9 75 -12 83 -8 19 3 16 69 -19z
m-6005 -60 c-3 -8 -6 -5 -6 6 -1 11 2 17 5 13 3 -3 4 -12 1 -19z m764 -215
c29 -47 27 -121 -6 -211 -15 -39 -33 -72 -39 -72 -22 0 -86 51 -102 82 -28 55
-54 140 -54 179 0 21 7 72 16 113 l17 75 74 -67 c41 -36 83 -81 94 -99z m7402
-150 c-69 -262 -104 -331 -229 -458 -74 -76 -154 -139 -154 -123 0 24 79 336
94 371 10 25 318 377 330 377 1 0 -17 -75 -41 -167z m-8048 -52 c15 -42 61
-143 102 -225 41 -81 72 -150 70 -153 -9 -8 -189 210 -208 251 -18 41 -39 147
-39 198 0 26 2 27 24 17 18 -9 31 -32 51 -88z m6793 -239 c45 -141 80 -202
148 -257 119 -98 145 -149 178 -352 13 -81 37 -200 54 -263 16 -63 51 -209 77
-325 25 -115 49 -218 52 -229 5 -16 1 -16 -28 6 -19 14 -86 52 -149 83 -97 49
-126 70 -187 133 -59 60 -76 72 -94 67 -18 -6 -20 -12 -14 -38 4 -18 10 -93
14 -167 8 -152 19 -185 90 -258 74 -76 191 -134 296 -147 33 -5 55 -12 55 -19
0 -21 -46 -149 -72 -201 -63 -123 -232 -315 -403 -458 -56 -47 -203 -127 -232
-127 -9 0 -13 17 -13 58 0 33 -10 86 -24 127 -17 47 -21 75 -15 87 21 39 2
138 -44 227 -32 63 -60 80 -134 84 -74 4 -80 8 -179 139 -41 53 -89 109 -108
123 -47 36 -112 44 -215 28 -65 -10 -97 -11 -138 -3 -29 6 -53 14 -53 18 1 20
59 45 123 53 165 21 353 92 515 195 123 79 286 267 323 373 21 60 1 43 -65
-57 -67 -103 -203 -238 -298 -298 -114 -73 -324 -150 -461 -169 l-48 -7 32 64
32 65 91 6 c140 8 258 63 350 164 23 24 69 73 102 107 34 35 73 85 87 112 26
53 81 217 92 274 4 19 15 64 26 100 17 55 20 93 19 272 l-2 208 44 33 c65 50
90 100 118 240 6 31 13 57 15 57 1 0 21 -57 43 -128z m-233 46 c-9 -44 -32
-78 -48 -72 -7 2 -19 14 -26 26 -13 20 -11 24 20 50 46 38 62 37 54 -4z m60
-81 c-17 -42 -51 -87 -67 -87 -20 0 -4 45 35 95 46 60 58 57 32 -8z m-6089
-124 c-3 -16 -10 -82 -16 -148 -10 -125 -43 -262 -103 -430 l-32 -90 -3 159
c-2 145 0 167 23 246 13 48 34 109 45 136 21 49 81 154 88 154 2 0 1 -12 -2
-27z m2854 -132 c0 -12 -73 -77 -107 -94 -35 -18 -113 -40 -120 -33 -10 10 44
69 82 89 69 36 145 56 145 38z m-3089 -114 c-1 -4 -1 -22 -2 -39 -1 -31 -1
-32 -9 -8 -12 37 -11 62 1 58 6 -2 10 -7 10 -11z m-216 -116 c66 -32 125 -64
131 -72 6 -8 14 -54 18 -103 3 -49 9 -99 12 -112 l6 -24 -43 24 c-24 13 -62
29 -83 36 -64 21 -128 93 -163 186 -17 43 -33 92 -37 107 -6 26 -5 28 16 22
13 -4 77 -33 143 -64z m838 -97 c34 -18 139 -109 146 -127 5 -14 -149 -1 -191
16 -18 8 -51 34 -72 58 l-40 43 30 13 c41 17 89 16 127 -3z m2207 -89 c0 -19
-35 -67 -73 -102 -53 -49 -102 -75 -177 -97 -63 -17 -210 -36 -210 -26 0 13
98 137 129 162 30 26 72 36 226 57 78 11 105 12 105 6z m-3220 -627 c16 -36
20 -66 20 -178 0 -74 -5 -142 -10 -150 -23 -36 -77 41 -107 151 -17 66 -24
294 -8 318 8 14 76 -77 105 -141z m7198 -67 c133 -69 150 -81 180 -125 27 -41
32 -57 30 -95 -3 -46 -3 -46 -42 -49 -58 -5 -123 14 -191 55 -124 74 -155 122
-155 239 0 68 2 75 16 64 8 -8 81 -48 162 -89z m-1385 -27 c12 -12 -56 -125
-92 -155 -34 -28 -36 -28 -43 -9 -11 30 -55 27 -70 -5 -6 -14 -15 -25 -20 -25
-13 0 64 110 103 147 45 43 104 65 122 47z m-3989 -356 c25 -62 49 -174 43
-199 -12 -46 -112 -173 -147 -186 l-32 -12 -31 67 c-28 58 -32 78 -32 147 0
99 19 134 97 181 69 42 86 42 102 2z m5774 -355 c-69 -159 -177 -253 -330
-287 -69 -16 -218 -35 -218 -28 0 6 107 127 158 178 30 29 66 51 115 70 40 15
117 47 172 70 55 23 105 43 112 43 8 1 5 -15 -9 -46z m-1849 -250 c28 -38 67
-98 86 -134 l35 -67 -23 -6 c-44 -12 -64 -5 -106 35 -59 57 -81 108 -81 192 0
64 1 67 19 57 11 -5 42 -40 70 -77z m-4972 -55 c40 -19 81 -38 93 -41 14 -4
20 -13 20 -35 0 -17 4 -42 9 -55 15 -39 123 -566 119 -582 -2 -11 -31 5 -101
54 -55 38 -101 72 -104 74 -2 3 1 69 7 146 11 126 10 150 -5 214 -21 85 -65
187 -102 235 -14 19 -22 33 -17 30 5 -2 41 -20 81 -40z m1838 -89 c106 -72
138 -138 143 -301 3 -95 1 -118 -9 -117 -8 0 -41 17 -74 37 -47 29 -71 54
-112 115 -62 93 -97 181 -88 217 4 14 9 44 12 67 l5 42 41 -16 c23 -9 60 -29
82 -44z m-523 -22 c147 -71 191 -135 204 -296 5 -57 1 -102 -14 -181 -12 -58
-26 -161 -33 -230 -9 -104 -9 -133 3 -167 11 -32 12 -57 4 -112 -5 -39 -13
-71 -18 -71 -4 0 -8 4 -8 9 0 15 -82 101 -111 116 -15 8 -39 15 -53 15 -47 0
-71 21 -119 103 -43 75 -101 207 -92 207 3 0 24 -10 47 -22 36 -19 58 -23 133
-22 113 1 169 19 173 55 2 21 -12 40 -82 107 -96 90 -196 147 -278 158 -59 8
-60 9 -84 159 -14 88 -22 112 -43 133 -24 24 -25 24 -39 6 -11 -15 -13 -46 -9
-154 11 -270 98 -572 215 -743 20 -29 31 -59 35 -99 12 -120 125 -261 271
-338 l66 -35 0 -68 c0 -112 42 -179 144 -228 33 -16 69 -38 81 -49 11 -11 35
-23 53 -26 26 -5 36 -15 53 -53 38 -86 126 -153 179 -136 32 10 23 31 -19 43
-99 30 -126 82 -134 255 -3 70 -4 127 -1 127 3 0 19 -7 35 -16 17 -8 42 -14
57 -12 26 3 26 3 48 -127 50 -287 87 -368 186 -410 21 -8 61 -15 90 -15 49 0
55 -3 82 -36 47 -60 80 -74 170 -74 44 0 94 5 111 11 26 10 41 8 89 -10 31
-11 78 -21 103 -21 32 0 67 -10 110 -31 82 -40 120 -36 175 18 36 35 40 37 50
19 21 -38 48 -56 84 -56 70 0 133 48 149 113 4 15 11 27 15 27 4 0 25 -21 45
-46 65 -79 161 -99 214 -46 15 15 30 34 33 42 4 12 10 11 29 -7 58 -53 164
-69 229 -34 47 25 81 92 87 176 3 36 8 65 10 65 2 0 16 -13 30 -30 33 -39 56
-38 89 5 21 27 33 35 59 35 18 0 38 7 45 15 10 12 24 14 56 9 57 -8 106 20
197 114 93 97 119 156 125 288 3 61 0 109 -6 121 -9 15 -5 31 16 74 26 51 27
63 30 223 3 153 6 172 25 197 26 37 26 83 -3 229 -38 193 -18 341 60 449 23
31 51 50 126 86 55 27 103 43 114 40 20 -6 160 -150 160 -164 0 -6 -9 -56 -19
-113 -11 -57 -23 -134 -27 -173 -6 -67 -52 -273 -72 -325 l-10 -25 -7 30 c-24
106 -101 261 -154 309 -19 18 -21 17 -45 -7 -34 -34 -42 -99 -27 -236 13 -126
36 -188 96 -258 19 -23 35 -45 35 -50 0 -5 -36 -60 -81 -123 -44 -63 -96 -145
-114 -181 -18 -36 -40 -71 -49 -78 -8 -7 -20 -27 -26 -45 -9 -28 -7 -40 14
-83 14 -27 34 -57 45 -67 25 -23 28 -17 34 81 l4 72 85 83 c128 126 198 239
241 387 20 68 28 84 57 103 55 37 197 214 238 297 32 63 42 101 62 218 24 151
22 173 -21 173 -19 0 -81 -77 -164 -203 -21 -31 -40 -56 -41 -54 -2 2 3 55 12
118 15 109 15 293 0 329 -5 13 12 15 121 15 71 0 153 4 184 8 l57 8 11 -33 c6
-18 23 -50 36 -70 14 -21 25 -42 25 -47 0 -6 -32 -60 -72 -121 -70 -110 -72
-114 -116 -288 -67 -269 -69 -436 -6 -499 14 -14 28 -23 30 -20 3 3 7 70 8
149 3 133 6 156 48 318 56 220 118 346 190 390 17 10 42 36 57 58 22 33 171
172 171 160 0 -3 -18 -56 -41 -119 -22 -63 -58 -190 -80 -284 -21 -93 -58
-240 -80 -325 -38 -143 -42 -165 -43 -290 -1 -127 17 -592 29 -762 l5 -77 -37
-6 c-115 -18 -155 -28 -218 -59 -150 -71 -264 -188 -314 -323 -18 -48 -44
-114 -58 -145 -21 -47 -23 -61 -13 -73 19 -23 43 -19 153 29 56 24 156 63 222
86 100 34 131 50 185 95 36 29 66 52 68 51 20 -21 -181 -350 -228 -373 -14 -7
-59 -29 -100 -49 -65 -31 -103 -62 -270 -220 -166 -157 -206 -190 -269 -220
-41 -20 -95 -39 -121 -43 -26 -4 -60 -16 -76 -27 -16 -11 -48 -29 -72 -39 -24
-10 -60 -37 -80 -60 -26 -29 -57 -49 -107 -69 -53 -21 -85 -42 -135 -91 -109
-106 -251 -224 -295 -245 -23 -11 -80 -26 -127 -32 -72 -10 -109 -8 -268 11
-141 17 -224 22 -351 19 l-165 -3 -86 53 c-104 63 -229 122 -322 153 -147 47
-316 2 -316 -84 0 -27 -2 -28 -32 -22 -65 14 -232 115 -482 293 l-128 92 119
0 c127 0 145 4 298 68 62 26 70 32 70 56 0 31 -19 45 -108 77 -31 11 -121 59
-198 106 -194 117 -237 136 -330 141 -92 5 -136 -7 -204 -58 l-51 -37 -109 62
c-204 115 -490 263 -533 276 -87 25 -187 167 -252 359 -29 85 -32 103 -27 175
3 44 18 134 35 200 39 155 45 201 31 226 -11 21 -11 21 -36 -3 l-26 -23 6 25
c12 49 9 385 -3 463 -7 43 -11 80 -8 83 3 2 29 -4 57 -16 28 -11 68 -20 89
-20 l37 0 77 -138 c129 -231 169 -320 264 -592 27 -75 53 -132 66 -143 46 -39
41 11 -26 262 -68 253 -93 312 -234 561 -128 226 -202 317 -360 441 -32 25
-34 30 -68 207 -29 155 -45 229 -80 382 -5 21 0 18 24 -15 16 -22 57 -71 92
-110 134 -151 198 -232 213 -267 17 -40 32 -46 62 -24 17 12 17 18 6 91 -8 46
-11 136 -9 221 l3 144 27 0 c15 0 58 12 95 26 72 28 274 98 308 107 11 3 56 5
101 3 73 -2 89 -7 176 -49z m-158 -434 c27 -14 73 -48 103 -76 60 -56 57 -67
-15 -67 -52 0 -98 18 -154 62 -24 18 -45 34 -46 35 -7 3 -21 77 -16 84 6 10
70 -9 128 -38z m4197 -140 c-23 -88 -112 -234 -186 -303 l-27 -25 8 30 c17 71
105 227 199 352 16 21 18 -3 6 -54z m-430 -263 c24 -63 38 -203 21 -214 -32
-20 -106 234 -86 296 l6 21 19 -24 c10 -13 28 -49 40 -79z m-4828 46 c159 -38
184 -50 191 -94 4 -20 9 -50 12 -66 l6 -29 -69 5 c-77 6 -157 37 -212 84 -35
29 -91 100 -91 116 0 14 57 9 163 -16z m378 -174 c22 -19 44 -43 50 -53 9 -17
2 -16 -50 11 -33 16 -67 30 -75 30 -16 0 -26 21 -26 56 l0 25 31 -18 c17 -10
48 -33 70 -51z m1288 42 c22 -16 23 -21 15 -68 -5 -28 -9 -147 -8 -263 0 -117
-2 -213 -5 -213 -31 2 -157 119 -163 153 -5 24 25 334 32 340 3 1 22 17 43 35
43 37 53 38 86 16z m-169 -42 c0 -15 -7 -82 -15 -147 -27 -219 -25 -208 -41
-194 -8 6 -14 23 -14 38 0 14 -7 56 -14 92 -10 47 -12 79 -5 115 5 27 10 66
11 87 1 36 2 37 40 37 35 0 38 -2 38 -28z m315 -14 c23 -27 25 -37 19 -72 -4
-23 -7 -139 -7 -258 0 -121 -4 -218 -9 -218 -5 0 -22 7 -38 15 -53 28 -61 57
-67 268 -6 216 1 266 37 284 34 17 35 17 65 -19z m386 3 c27 -17 56 -49 77
-84 33 -55 34 -56 23 -129 -5 -40 -15 -121 -21 -180 -17 -166 -54 -244 -125
-268 -52 -17 -78 -7 -105 42 -22 40 -24 55 -27 218 -2 96 0 220 3 274 6 92 9
102 34 128 38 37 82 37 141 -1z m2245 8 c40 -45 13 -350 -37 -413 -13 -16 -30
-26 -46 -26 -14 0 -41 -10 -60 -21 -19 -12 -36 -19 -39 -17 -2 3 13 65 35 139
21 74 42 162 45 197 6 62 24 110 54 145 19 22 25 22 48 -4z m-2492 -6 c44 -20
49 -33 35 -91 -7 -29 -9 -109 -5 -212 6 -207 0 -264 -32 -268 -14 -2 -33 7
-52 27 l-30 29 0 246 c0 239 1 246 22 266 26 24 20 24 62 3z m2093 -44 c35
-34 53 -72 53 -115 0 -63 -30 -240 -50 -300 -19 -55 -101 -197 -120 -209 -5
-3 -33 10 -62 30 l-53 35 0 188 c0 103 -4 213 -9 245 l-9 57 39 36 c21 20 52
43 69 51 43 19 111 11 142 -18z m-339 6 c30 -22 49 -96 62 -238 8 -86 8 -144
0 -210 -17 -149 -31 -215 -46 -228 -31 -26 -208 26 -225 65 -5 12 -13 81 -18
153 -14 217 18 333 120 428 52 48 72 54 107 30z m838 -143 c-4 -157 -17 -218
-47 -227 -11 -4 -23 -5 -25 -2 -3 3 4 53 15 111 12 59 21 134 21 167 0 61 14
104 30 94 5 -3 7 -67 6 -143z m-267 112 c21 -15 23 -23 19 -73 -6 -76 -86
-355 -110 -387 -17 -21 -27 -25 -62 -22 -50 4 -50 3 -12 170 15 68 26 148 26
189 0 62 4 77 26 106 29 38 73 45 113 17z m-1747 -34 c21 -17 44 -49 54 -75
15 -40 15 -53 3 -123 -8 -48 -12 -142 -11 -251 2 -167 1 -175 -20 -198 -51
-54 -154 -16 -225 84 l-46 65 17 96 c9 54 23 156 30 229 14 139 19 153 71 185
44 27 85 23 127 -12z m386 -40 c23 -16 52 -49 64 -72 22 -41 22 -52 20 -253
-3 -273 -7 -304 -39 -316 -71 -27 -197 1 -272 60 -69 55 -75 79 -69 286 6 202
15 236 70 278 47 36 75 46 134 46 41 1 59 -5 92 -29z m-1400 -294 c39 -42 40
-46 31 -80 -6 -22 -7 -60 -1 -101 5 -36 6 -65 2 -65 -4 0 -22 10 -41 23 -47
30 -78 97 -80 172 -3 108 23 123 89 51z m2982 -23 c3 -2 4 -55 4 -116 -1 -120
-12 -158 -61 -229 -28 -41 -48 -50 -38 -18 12 38 7 174 -9 243 -21 91 -21 92
17 116 29 19 70 21 87 4z m-2832 -74 l42 -18 0 -101 c0 -113 -7 -125 -59 -94
-39 23 -57 69 -66 167 l-7 79 24 -7 c12 -4 42 -15 66 -26z m2685 -54 c21 -93
18 -240 -6 -296 -19 -47 -61 -79 -103 -79 -40 0 -43 13 -19 80 19 53 19 166 1
242 -11 49 -11 61 1 87 15 31 53 51 88 48 16 -2 23 -16 38 -82z m-164 -61 c24
-94 7 -258 -33 -320 -19 -28 -60 -34 -52 -6 27 86 34 317 11 348 -26 34 -35
-2 -35 -147 0 -137 -13 -212 -44 -254 -27 -36 -43 0 -68 150 -19 115 -26 140
-40 137 -8 -1 -18 4 -21 12 -4 10 3 17 23 21 32 7 47 22 84 86 l26 46 69 -15
69 -15 11 -43z m-2163 -1 c28 -47 69 -68 115 -58 30 7 32 6 25 -16 -3 -13 -9
-67 -13 -119 -5 -78 -2 -110 16 -179 11 -47 19 -86 17 -88 -1 -2 -33 6 -69 17
-73 23 -110 57 -126 118 -8 29 -65 267 -85 353 -3 13 6 16 46 14 46 -2 51 -4
74 -42z m275 -46 c26 -38 54 -62 100 -87 l64 -35 5 -135 c5 -118 9 -142 32
-191 l26 -57 -46 -6 c-135 -18 -188 8 -244 121 l-33 68 0 162 c0 157 1 162 24
187 14 14 27 26 30 26 3 -1 22 -24 42 -53z m1539 -2 c44 -65 59 -104 66 -183
7 -69 -10 -255 -26 -298 -18 -47 -46 -64 -105 -64 -77 0 -122 21 -141 65 -8
19 -19 83 -24 143 -12 122 -28 246 -36 279 -6 23 -6 23 36 8 92 -32 151 -13
171 55 7 22 16 40 20 40 4 0 22 -20 39 -45z m-1143 -66 c35 -23 80 -47 101
-55 52 -18 138 -17 194 3 46 16 47 16 105 -9 32 -14 80 -28 107 -32 27 -3 52
-9 55 -12 3 -3 6 -69 6 -147 0 -124 -3 -148 -22 -189 -24 -52 -67 -81 -111
-76 -40 5 -57 70 -72 273 -12 174 -14 185 -32 185 -8 0 -9 -53 -6 -177 6 -191
4 -206 -45 -251 -13 -12 -40 -25 -59 -28 -29 -5 -41 -1 -70 25 -19 17 -48 59
-64 93 -26 57 -28 75 -32 201 -3 93 -8 137 -15 134 -20 -6 -29 -71 -25 -177 3
-85 9 -117 31 -170 14 -35 25 -65 24 -66 -1 -2 -33 4 -71 12 -145 30 -177 77
-184 270 l-4 121 43 24 c27 15 50 37 59 56 8 18 17 33 19 33 3 0 33 -19 68
-41z m828 0 c9 -17 23 -92 32 -167 13 -111 14 -152 5 -216 -15 -102 -30 -120
-95 -113 -90 8 -131 74 -148 240 -10 96 -10 109 7 144 12 24 27 39 42 41 12 2
41 26 65 53 23 27 50 49 59 49 10 0 25 -14 33 -31z m-3286 -534 c17 -44 50
-120 75 -168 l44 -88 -32 24 c-42 33 -62 69 -107 198 -40 112 -45 148 -32 235
7 48 8 47 14 -36 5 -59 17 -111 38 -165z m5441 169 c0 -55 -27 -100 -102 -170
-67 -64 -99 -80 -263 -137 -72 -24 -138 -48 -147 -52 -24 -10 -23 2 7 80 50
132 111 194 274 271 86 41 198 69 224 57 4 -3 7 -24 7 -49z m-4120 -807 c30
-13 105 -55 165 -94 61 -39 139 -85 175 -103 l65 -33 -45 -20 c-60 -27 -138
-32 -272 -17 -109 12 -130 18 -279 89 -29 14 -58 39 -78 66 l-32 45 26 24 c74
68 175 84 275 43z m3800 -192 c27 -69 32 -209 11 -285 -18 -66 -105 -289 -112
-290 -4 0 -20 35 -35 78 -25 67 -29 91 -29 182 1 98 3 111 39 200 53 130 86
194 96 184 4 -5 18 -36 30 -69z m-3697 -362 l130 -68 80 -163 c43 -90 77 -165
75 -167 -9 -9 -261 130 -304 168 -64 57 -130 148 -138 192 -7 34 8 105 21 105
3 0 64 -30 136 -67z"/>
<path d="M3601 8401 c-14 -24 -10 -129 5 -180 6 -21 2 -20 -52 17 -32 22 -106
66 -164 97 -121 64 -150 67 -150 12 0 -54 20 -149 40 -187 21 -41 93 -111 140
-135 46 -24 154 -45 231 -45 80 0 75 3 195 -145 48 -60 129 -157 178 -215 50
-58 97 -114 105 -125 31 -40 -110 100 -156 157 -42 51 -73 73 -73 51 1 -28 77
-126 188 -243 130 -137 131 -137 163 -231 36 -105 54 -133 69 -109 5 8 10 34
10 57 0 41 1 42 26 33 33 -13 34 -13 34 4 0 8 -20 36 -44 62 -23 27 -49 67
-56 89 -22 70 -57 129 -119 206 -34 41 -61 77 -61 80 0 3 29 69 64 145 80 173
90 211 84 322 -6 113 -60 271 -100 296 -27 16 -49 -13 -107 -141 -72 -158
-103 -256 -109 -341 l-5 -73 -29 28 c-43 40 -150 179 -185 238 -42 72 -72 146
-92 228 -17 68 -18 71 -30 48z m-207 -151 c57 -24 146 -84 206 -138 l45 -41
-56 -1 c-69 0 -134 21 -182 61 -52 43 -99 139 -68 139 5 0 30 -9 55 -20z m776
-101 c15 -89 2 -152 -59 -288 -21 -47 -42 -96 -45 -108 -11 -34 -21 -28 -35
17 -37 123 -23 217 56 380 62 129 62 129 83 -1z"/>
<path d="M5435 7687 c-67 -67 -188 -187 -271 -267 -183 -177 -207 -217 -212
-350 -3 -77 -1 -90 25 -140 20 -39 35 -56 51 -58 28 -4 28 6 0 60 -27 51 -35
150 -18 203 18 56 84 132 279 325 189 187 319 353 274 350 -5 -1 -62 -56 -128
-123z"/>
<path d="M4405 6854 c11 -8 72 -42 135 -76 112 -59 117 -61 208 -66 51 -3 95
-9 98 -13 7 -12 71 -11 111 0 28 8 38 5 70 -19 47 -34 102 -93 136 -144 l25
-38 16 31 c21 40 14 54 -77 148 -82 85 -116 100 -185 83 -38 -9 -60 -8 -112 4
-36 9 -81 16 -100 16 -55 0 -169 29 -238 61 -34 16 -72 29 -85 29 -22 -1 -22
-1 -2 -16z"/>
<path d="M4439 6553 c-17 -44 -35 -122 -49 -203 -7 -41 -19 -88 -28 -105 -23
-45 -63 -425 -45 -425 14 0 59 104 72 168 6 29 11 82 11 117 0 39 8 85 20 117
11 29 26 103 35 163 8 61 19 124 24 140 4 17 6 36 4 43 -8 22 -33 13 -44 -15z"/>
<path d="M4595 6042 c-22 -11 -46 -32 -55 -48 -8 -16 -26 -47 -40 -69 -15 -22
-56 -101 -92 -176 l-65 -135 -89 -28 c-120 -38 -152 -56 -203 -111 -72 -78
-108 -180 -112 -313 -1 -33 1 -64 5 -71 14 -23 48 -10 109 42 34 29 77 63 96
76 30 22 33 22 28 5 -3 -10 -11 -44 -17 -74 -7 -30 -34 -123 -61 -207 -58
-180 -61 -229 -24 -377 35 -134 76 -230 140 -323 30 -43 65 -98 79 -123 29
-54 62 -86 141 -136 33 -20 83 -55 112 -76 51 -39 52 -39 150 -41 72 -1 108 3
136 16 38 16 38 16 80 -14 57 -41 97 -38 114 11 7 19 12 63 12 97 1 61 3 66
60 142 77 104 116 174 145 258 13 37 39 100 56 138 25 52 34 89 38 144 4 65 9
80 38 118 53 70 77 164 72 281 -6 117 -24 176 -55 180 -14 2 -27 -5 -36 -20
-7 -13 -32 -52 -55 -89 -25 -39 -46 -86 -52 -119 -6 -29 -12 -55 -14 -58 -3
-2 -17 15 -32 38 -27 41 -29 50 -36 211 -8 166 -7 168 19 236 20 53 26 84 25
143 -1 103 -20 232 -36 248 -19 19 -54 -1 -63 -36 -3 -15 -21 -58 -40 -97 -18
-38 -33 -79 -33 -90 0 -36 -14 -48 -32 -28 -32 37 -51 90 -60 168 -12 110 -32
165 -80 219 -81 93 -189 127 -273 88z m102 -68 c22 -6 22 -6 -7 -35 -35 -35
-50 -36 -80 -4 l-23 25 24 9 c28 11 56 13 86 5z m-7 -374 c0 -37 9 -101 20
-143 19 -73 19 -81 5 -143 -21 -90 -19 -114 14 -229 30 -105 58 -271 48 -281
-3 -3 -19 9 -36 28 -22 24 -31 46 -35 83 -3 28 -13 120 -22 205 -8 85 -25 218
-36 295 -28 194 -31 238 -23 282 l7 38 29 -35 c26 -30 29 -42 29 -100z m457
-36 c-4 -35 -13 -76 -21 -91 l-14 -28 -7 28 c-9 35 -1 123 14 162 11 28 13 29
23 11 6 -11 8 -45 5 -82z m-442 -952 c-14 -34 -18 -162 -5 -206 6 -24 36 -83
65 -131 48 -77 52 -90 44 -118 -14 -50 -10 -117 11 -177 10 -30 16 -58 14 -62
-8 -13 -78 -28 -132 -28 -66 0 -112 22 -105 49 3 11 -21 72 -57 146 l-61 128
32 44 c17 25 44 84 59 132 14 47 44 125 66 173 34 75 41 85 57 76 12 -6 16
-15 12 -26z m-243 -530 c11 -24 17 -46 14 -49 -7 -7 -67 31 -91 57 -18 20 -18
21 6 46 22 24 24 24 37 7 8 -10 23 -37 34 -61z m432 -44 c6 -13 27 -30 46 -39
34 -16 34 -16 11 -28 -39 -22 -56 -5 -75 74 -8 32 0 29 18 -7z m76 -108 c0 -5
-5 -10 -11 -10 -5 0 -7 5 -4 10 3 6 8 10 11 10 2 0 4 -4 4 -10z"/>
<path d="M4380 3867 c0 -14 53 -40 144 -72 38 -14 51 -25 62 -51 8 -18 14 -43
14 -56 0 -37 31 -152 46 -167 21 -23 27 8 22 108 -6 99 -32 170 -72 196 -27
18 -156 55 -193 55 -13 0 -23 -6 -23 -13z"/>
<path d="M6260 1786 c-102 -39 -236 -106 -307 -153 -72 -48 -133 -118 -173
-200 -62 -127 -71 -136 -156 -172 -89 -38 -263 -101 -277 -101 -5 0 14 18 42
40 61 49 129 133 173 215 17 33 46 84 64 114 18 29 30 60 27 67 -6 16 -36 18
-61 4 -9 -5 -42 -19 -72 -30 -30 -11 -96 -43 -145 -71 -195 -112 -259 -186
-305 -357 -15 -56 -32 -62 -205 -69 -112 -4 -152 -2 -200 11 -34 9 -121 19
-202 23 -79 3 -143 8 -143 10 0 3 24 26 53 52 35 33 77 90 130 179 42 72 77
138 77 147 0 19 -48 20 -75 1 -11 -7 -57 -23 -101 -34 -165 -41 -236 -98 -309
-242 -25 -49 -55 -96 -67 -103 -13 -8 -49 -20 -80 -26 -56 -12 -77 -25 -63
-39 4 -4 103 -5 220 -4 209 4 215 3 267 -20 32 -15 96 -64 162 -124 137 -125
142 -129 197 -147 77 -26 182 -31 314 -13 141 19 188 31 206 52 21 25 -12 45
-163 98 -74 26 -154 60 -178 76 -41 27 -42 29 -19 34 13 3 69 10 124 16 119
13 291 55 441 108 60 22 150 47 201 56 204 37 326 85 441 171 79 59 124 120
196 260 31 61 66 127 78 148 17 33 19 40 7 48 -20 13 -25 12 -119 -25z m10
-66 c0 -6 -21 -55 -47 -108 -61 -127 -142 -211 -260 -269 -75 -38 -180 -69
-203 -61 -13 4 88 183 134 234 44 52 157 124 274 175 96 42 102 44 102 29z
m-1836 -387 c-31 -49 -70 -102 -86 -120 -48 -49 -137 -93 -193 -93 l-47 0 42
78 c41 76 95 143 135 165 16 9 169 52 198 56 4 1 -18 -38 -49 -86z"/>
</g>
</svg>
